<?xml version="1.0"?>
<svg id="_Слой_1" data-name="Слой 1" xmlns="http://www.w3.org/2000/svg" viewBox="326 126 188 598">
  <defs>
    
  </defs>
  
  <g>
    <g>
      <polygon fill="rgba(255,255,255,0.28)" points="438.52 193.61 438.52 186.93 403.2 186.93 403.2 217.51 438.52 217.51 438.52 210.85 411.31 210.85 411.31 205.57 434.06 205.57 434.06 198.87 411.31 198.87 411.31 193.61 438.52 193.61"></polygon>
      <polygon fill="rgba(255,255,255,0.28)" points="438.51 269.96 420.86 269.96 403.19 269.96 403.19 276.62 416.79 276.62 416.79 300.37 416.79 300.39 420.86 300.39 424.91 300.39 424.91 300.37 424.91 276.62 438.51 276.62 438.51 269.96"></polygon>
      <path fill="rgba(255,255,255,0.28)" d="m411.04,424.38h0s2.08-7.05,2.08-7.05l.06-.21h15.33l.06.21h.02l2.08,7.05h0s8.03,0,8.03,0h0s-9-30.42-9-30.42h-17.73l-8.98,30.34-.02.08h0s.02,0,.02,0h8.03Zm6.99-23.79h5.64l2.87,9.75h-11.37l2.85-9.75Z"></path>
      <rect fill="rgba(255,255,255,0.28)" x="449.78" y="134.4" width="57.87" height="52.37"></rect>
      <polygon fill="rgba(255,255,255,0.28)" points="391.82 607.61 449.78 607.61 449.78 518.36 449.78 518.14 391.82 518.14 391.82 607.61"></polygon>
      <rect fill="rgba(255,255,255,0.28)" x="334.24" y="228.48" width="57.58" height="289.67"></rect>
      <polygon fill="rgba(255,255,255,0.28)" points="449.78 269.91 449.78 465.87 507.65 465.87 507.63 269.91 449.78 269.91"></polygon>
      <path fill="rgba(255,255,255,0.28)" d="m438.84,240.2c0,1.47-.08,3.73-.28,5.02-.78,5.02-3.37,7.13-10.14,7.13h-17.26v6.64h-8.14v-30.52h25.4c6.09,0,9.12,1.82,10.08,6.67.23,1.18.34,3.58.34,5.05Zm-8.38-2.29c0-1.53-1.24-2.76-2.76-2.76h-16.53v10.12h16.53c1.53,0,2.76-1.24,2.76-2.76v-4.6Z"></path>
      <path fill="rgba(255,255,255,0.28)" d="m438.18,500.47c-.96,4.86-3.99,6.67-10.08,6.67h-25.01v-30.52h8.14v7.43h16.87c6.77,0,9.36,2.11,10.14,7.13.2,1.29.28,3.55.28,5.02s-.11,3.08-.34,4.26Zm-8.04-6.57c0-1.53-1.24-2.76-2.76-2.76h-16.14v9.33h16.14c1.53,0,2.76-1.24,2.76-2.76v-3.8Z"></path>
      <path fill="rgba(255,255,255,0.28)" d="m438.66,311.23v30.52h-8.23v-23.44l-13.81,23.44h-13.38v-30.52h8.24v23.44l13.94-23.44h13.25Z"></path>
      <path fill="rgba(255,255,255,0.28)" d="m420.34,371.36h-8.97v11.72h-8.14v-30.52h8.14v11.72h8.52l8.02-11.72h9.85l-10.74,14.98,11.64,15.54h-10.09l-8.22-11.72Z"></path>
      <path fill="rgba(255,255,255,0.28)" d="m438.7,435.25h-32.16v10.39h0c-.02.48-.02.94-.02,1.34v8.1c-.03.46-.35,3.65-3.47,4.05v6.65c3.88,0,6.44-.56,8.32-2.13,1.46-1.22,2.7-2.98,3.1-5.21.27-1.48.41-2.68.42-4.95h.01v-11.57h15.63v23.85h8.14v-30.51h.03Z"></path>
      <path fill="rgba(255,255,255,0.28)" d="m438.39,160.32h-8.2c.26-.26,2.21-2.23,3.22-3.93,1.15-1.95,4.09-6.89,4.09-11.01h-34.51v30.64l24.99.02c2.44,0,4.32-.36,5.43-.75,2.3-.82,3.66-2.44,4.31-4.55.18-.57.47-1.45.6-3.41h0c.04-.61.06-1.31.06-2.13v-.81s-.04,0-.06,0v-.07s.04,0,.06,0v-.43s0,0,0,0v-3.55Zm-27-8.76h16.86c-.55,3.12-3.67,5.84-3.67,5.84h-13.19v-5.84Zm18.85,14.49c-.16,1.98-.99,3.41-3.71,3.41h-15.4v-5.59h19.11v2.18Z"></path>
    </g>
    <g>
      <path fill="rgba(255,255,255,0.28)" d="m336.6,646.96c.54.59,1.19,1.06,1.93,1.4.74.34,1.56.51,2.44.51s1.76-.18,2.54-.55c.68-.32,1.28-.74,1.78-1.25v1.54h2.47v-12.68h-2.47v1.56c-.5-.52-1.1-.95-1.78-1.27-.78-.36-1.63-.55-2.54-.55s-1.7.17-2.44.51c-.74.34-1.39.8-1.93,1.38-.54.58-.97,1.29-1.27,2.09-.3.81-.46,1.68-.46,2.61s.15,1.8.46,2.59.73,1.5,1.27,2.09Zm.75-4.69c0-.63.09-1.22.27-1.75.18-.53.44-.99.78-1.39.34-.39.76-.7,1.25-.91.5-.22,1.08-.33,1.72-.33.6,0,1.15.09,1.63.28.48.18.9.43,1.23.74.34.3.6.66.78,1.07.18.41.28.84.28,1.28v2.15c-.02.43-.12.84-.31,1.22-.19.38-.46.73-.8,1.02-.34.3-.75.54-1.22.71-.48.18-1.01.27-1.59.27-.65,0-1.23-.11-1.72-.33-.5-.21-.92-.52-1.25-.91-.34-.39-.6-.86-.78-1.39-.18-.53-.27-1.12-.27-1.75Z"></path>
      <path fill="rgba(255,255,255,0.28)" d="m353.48,647.07c.5.51,1.1.93,1.78,1.25.77.36,1.63.55,2.54.55s1.7-.17,2.44-.51c.74-.34,1.39-.81,1.93-1.4.54-.59.97-1.29,1.27-2.09.3-.8.46-1.67.46-2.59s-.15-1.8-.46-2.61c-.3-.81-.73-1.51-1.27-2.09-.54-.58-1.19-1.05-1.93-1.38-.74-.34-1.56-.51-2.44-.51s-1.76.18-2.54.55c-.68.32-1.28.74-1.78,1.27v-1.56h-2.47v17.67h2.47v-6.53Zm.28-2.53c-.18-.4-.28-.83-.28-1.25v-2.15c.02-.43.12-.84.3-1.23.18-.39.45-.74.78-1.03.34-.3.75-.53,1.22-.71.48-.18,1.02-.27,1.62-.27.64,0,1.22.11,1.72.33.5.22.92.52,1.25.91.34.39.6.86.78,1.39.18.53.27,1.12.27,1.75s-.09,1.22-.27,1.75c-.18.53-.44,1-.78,1.39-.33.39-.76.7-1.25.91-.5.22-1.08.33-1.72.33-.6,0-1.15-.09-1.63-.28-.48-.18-.9-.43-1.23-.75-.34-.31-.6-.67-.78-1.08Z"></path>
      <polygon fill="rgba(255,255,255,0.28)" points="367.28 648.61 370.73 643.91 374.22 648.61 377.16 648.61 372.32 642.1 376.91 635.93 374.21 635.93 371.01 640.31 367.78 635.93 364.83 635.93 369.42 642.14 364.58 648.61 367.28 648.61"></polygon>
      <polygon fill="rgba(255,255,255,0.28)" points="388.28 639.8 388.28 648.61 390.75 648.61 390.75 635.93 388.84 635.93 381.78 644.74 381.78 635.93 379.32 635.93 379.32 648.61 381.23 648.61 388.28 639.8"></polygon>
      <polygon fill="rgba(255,255,255,0.28)" points="393.27 638.15 397.63 638.15 397.63 648.61 400.1 648.61 400.1 638.15 404.45 638.15 404.45 635.93 393.27 635.93 393.27 638.15"></polygon>
      <path fill="rgba(255,255,255,0.28)" d="m407.4,647.07c.61.57,1.35,1,2.21,1.31.85.3,1.81.45,2.85.45.91,0,1.74-.12,2.47-.34.74-.23,1.41-.52,1.99-.87l.05-.03v-2.25h-.37l-.03.02c-.29.18-.58.35-.87.51-.27.15-.57.29-.89.4-.31.11-.67.2-1.06.26s-.84.09-1.33.09c-1.34,0-2.4-.34-3.15-1.01-.72-.64-1.16-1.51-1.3-2.58h9.67v-.1c.11-1.13.05-2.16-.17-3.06-.22-.9-.58-1.67-1.08-2.29s-1.13-1.09-1.87-1.42c-.74-.32-1.6-.48-2.54-.48-.99,0-1.9.17-2.7.52-.8.35-1.49.82-2.06,1.41-.56.59-1,1.29-1.31,2.09-.3.8-.46,1.66-.46,2.57,0,1.01.17,1.93.51,2.73.34.81.82,1.51,1.42,2.07Zm.69-6.19c.19-.87.6-1.59,1.21-2.13.64-.57,1.54-.86,2.67-.86.94,0,1.68.29,2.21.85.5.54.82,1.26.95,2.14h-7.03Z"></path>
      <polygon fill="rgba(255,255,255,0.28)" points="422.69 642.73 428.23 648.58 428.26 648.61 431.49 648.61 425.28 642.05 431.5 635.93 428.51 635.93 422.69 641.65 422.69 635.93 420.22 635.93 420.22 648.61 422.69 648.61 422.69 642.73"></polygon>
      <polygon fill="rgba(255,255,255,0.28)" points="432.9 638.15 437.26 638.15 437.26 648.61 439.73 648.61 439.73 638.15 444.09 638.15 444.09 635.93 432.9 635.93 432.9 638.15"></polygon>
      <polygon fill="rgba(255,255,255,0.28)" points="448.41 653.59 451.02 653.59 458.26 635.93 455.65 635.93 451.74 645.43 448.1 635.93 445.34 635.93 450.42 648.67 448.41 653.59"></polygon>
      <path fill="rgba(255,255,255,0.28)" d="m462.69,647.07c.5.51,1.1.93,1.78,1.25.77.36,1.63.55,2.54.55s1.7-.17,2.44-.51c.74-.34,1.39-.81,1.93-1.4.54-.59.96-1.29,1.27-2.09s.46-1.67.46-2.59-.15-1.8-.46-2.61c-.3-.81-.73-1.51-1.27-2.09-.54-.58-1.19-1.05-1.93-1.38-.74-.34-1.56-.51-2.44-.51s-1.76.18-2.54.55c-.68.32-1.28.74-1.78,1.27v-1.56h-2.47v17.67h2.47v-6.53Zm.28-2.53c-.18-.4-.28-.83-.28-1.25v-2.15c.02-.43.12-.84.3-1.23.18-.39.45-.73.78-1.03.34-.3.75-.53,1.22-.71.48-.18,1.02-.27,1.62-.27.64,0,1.22.11,1.72.33.5.22.92.52,1.25.91.34.39.6.86.78,1.39.18.53.27,1.12.27,1.75s-.09,1.22-.27,1.75c-.18.53-.44,1-.78,1.39-.34.39-.76.7-1.25.91-.5.22-1.08.33-1.72.33-.6,0-1.14-.09-1.63-.28-.48-.18-.9-.43-1.23-.75-.34-.31-.6-.67-.78-1.08Z"></path>
      <path fill="rgba(255,255,255,0.28)" d="m485.28,647.07v1.55h2.47v-12.68h-2.47v1.56c-.5-.52-1.1-.95-1.78-1.27-.78-.36-1.63-.55-2.54-.55s-1.7.17-2.44.51c-.74.34-1.39.8-1.93,1.38-.54.58-.97,1.29-1.27,2.09-.3.81-.46,1.68-.46,2.61s.15,1.8.46,2.59c.3.8.73,1.5,1.27,2.09.54.59,1.19,1.06,1.93,1.4.74.34,1.56.51,2.44.51s1.76-.18,2.54-.55c.68-.32,1.28-.74,1.78-1.25Zm-3.92-.43c-.65,0-1.23-.11-1.72-.33-.5-.21-.92-.52-1.25-.91-.34-.39-.6-.86-.78-1.39-.18-.53-.27-1.12-.27-1.75s.09-1.22.27-1.75c.18-.53.44-.99.78-1.39.34-.39.76-.7,1.25-.91.5-.22,1.08-.33,1.72-.33.6,0,1.15.09,1.63.28.48.18.9.43,1.23.74.34.3.6.66.78,1.07.18.41.28.84.28,1.28v2.15c-.02.43-.12.84-.31,1.22-.19.38-.46.73-.8,1.02-.34.3-.75.54-1.22.71-.48.18-1.01.27-1.59.27Z"></path>
      <path fill="rgba(255,255,255,0.28)" d="m348.55,678.8v-5.46h-1.99v-10.46h-9.32v.11c-.12,2.84-.31,5.14-.56,6.83-.25,1.64-.65,2.83-1.2,3.53h-1.35v5.46h2.22v-3.24h9.99v3.24h2.22Zm-4.46-13.7v8.24h-6.09c.4-.72.7-1.71.88-2.97.2-1.33.35-3.1.47-5.27h4.74Z"></path>
      <polygon fill="rgba(255,255,255,0.28)" points="361.93 675.56 361.93 662.88 360.02 662.88 352.96 671.68 352.96 662.88 350.49 662.88 350.49 675.56 352.4 675.56 359.46 666.75 359.46 675.56 361.93 675.56"></polygon>
      <path fill="rgba(255,255,255,0.28)" d="m372.32,669c.48-.26.87-.61,1.16-1.03.34-.49.51-1.09.51-1.77,0-.53-.12-1.02-.36-1.46-.24-.44-.59-.82-1.03-1.13-.44-.31-.97-.56-1.58-.73-.61-.17-1.28-.25-2-.25-1.61,0-2.91.26-3.89.79l-.06.03v2.25h.37l.03-.02c.47-.27,1.01-.48,1.6-.62.6-.14,1.19-.21,1.76-.21,1.03,0,1.75.16,2.13.46.38.3.57.68.57,1.14s-.16.84-.49,1.14c-.33.29-.8.44-1.39.44h-2.53v2.17h3.03c.62,0,1.09.15,1.41.43.32.29.47.64.47,1.07,0,.55-.21.99-.64,1.35-.43.35-1.21.53-2.31.53-.84,0-1.57-.07-2.19-.21-.62-.14-1.22-.38-1.78-.72l-.03-.02h-.37v2.32l.06.03c.59.32,1.24.54,1.93.65.68.11,1.49.16,2.38.16,1.71,0,3.05-.35,3.99-1.04.95-.7,1.43-1.64,1.43-2.81,0-.77-.22-1.42-.66-1.93-.38-.44-.89-.79-1.5-1.03Z"></path>
      <path fill="rgba(255,255,255,0.28)" d="m386.66,664.44c-.5-.52-1.1-.95-1.78-1.27-.77-.36-1.63-.55-2.54-.55s-1.7.17-2.44.51c-.74.34-1.39.8-1.93,1.38-.54.58-.97,1.29-1.27,2.09-.3.81-.46,1.68-.46,2.61s.15,1.8.46,2.59c.3.8.73,1.5,1.27,2.09.54.59,1.19,1.06,1.93,1.4.74.34,1.56.51,2.44.51s1.76-.18,2.54-.55c.68-.32,1.28-.74,1.78-1.25v1.55h2.47v-12.68h-2.47v1.56Zm-.28,2.49c.18.41.28.84.28,1.28v2.15c-.02.43-.12.84-.31,1.22-.19.38-.46.73-.8,1.02-.34.3-.75.54-1.22.71-.48.18-1.01.27-1.59.27-.65,0-1.23-.11-1.72-.33-.5-.21-.92-.52-1.25-.91-.34-.39-.6-.86-.78-1.39-.18-.53-.27-1.12-.27-1.75s.09-1.22.27-1.75c.18-.53.44-.99.78-1.39.34-.39.76-.7,1.25-.91.5-.22,1.08-.33,1.72-.33.6,0,1.15.09,1.63.28.48.18.9.43,1.23.74.34.3.6.66.78,1.07Z"></path>
      <polygon fill="rgba(255,255,255,0.28)" points="394.86 671.68 394.86 662.88 392.39 662.88 392.39 675.56 394.31 675.56 401.36 666.75 401.36 675.56 403.83 675.56 403.83 662.88 401.92 662.88 394.86 671.68"></polygon>
      <polygon fill="rgba(255,255,255,0.28)" points="418.28 675.56 418.28 662.88 415.81 662.88 415.81 668.01 409.56 668.01 409.56 662.88 407.09 662.88 407.09 675.56 409.56 675.56 409.56 670.23 415.81 670.23 415.81 675.56 418.28 675.56"></polygon>
      <path fill="rgba(255,255,255,0.28)" d="m343.29,689.72c-.62-.1-1.27-.15-1.92-.15-.92,0-1.79.17-2.59.51-.79.34-1.48.8-2.05,1.38-.57.58-1.03,1.29-1.36,2.09-.33.81-.49,1.69-.49,2.61s.17,1.8.49,2.6.78,1.5,1.36,2.08c.57.58,1.26,1.05,2.05,1.38.79.34,1.66.51,2.59.51.65,0,1.3-.05,1.93-.16.63-.11,1.2-.3,1.69-.57l.06-.03v-2.32h-.37l-.03.02c-.47.29-.96.51-1.44.65-.49.14-1.1.21-1.84.21-.65,0-1.23-.11-1.72-.33-.5-.22-.92-.52-1.26-.91-.34-.39-.6-.85-.78-1.37-.18-.52-.27-1.11-.27-1.75s.09-1.23.27-1.76c.18-.53.44-.99.77-1.38.34-.38.76-.69,1.26-.91.5-.22,1.08-.33,1.72-.33.73,0,1.35.07,1.84.2.49.13.97.34,1.44.63l.03.02h.37v-2.32l-.06-.03c-.49-.27-1.06-.46-1.69-.56Z"></path>
      <polygon fill="rgba(255,255,255,0.28)" points="347 692.04 351.36 692.04 351.36 702.51 353.83 702.51 353.83 692.04 358.18 692.04 358.18 689.82 347 689.82 347 692.04"></polygon>
      <path fill="rgba(255,255,255,0.28)" d="m371.66,691.47c-.54-.58-1.19-1.05-1.93-1.38-.74-.34-1.56-.51-2.44-.51s-1.76.18-2.54.55c-.68.32-1.28.74-1.78,1.27v-1.56h-2.47v17.67h2.47v-6.53c.5.51,1.1.93,1.78,1.25.78.36,1.63.55,2.54.55s1.7-.17,2.44-.51c.74-.34,1.39-.81,1.93-1.4.54-.59.97-1.29,1.27-2.09.3-.8.46-1.67.46-2.59s-.15-1.8-.46-2.61-.73-1.51-1.27-2.09Zm-.74,4.7c0,.63-.09,1.22-.27,1.75-.18.53-.44,1-.78,1.39-.34.39-.76.7-1.25.91-.5.22-1.08.33-1.72.33-.6,0-1.15-.09-1.63-.28-.48-.18-.9-.43-1.23-.75-.34-.31-.6-.67-.78-1.08-.18-.4-.28-.83-.28-1.25v-2.15c.02-.43.12-.84.3-1.23.18-.39.45-.73.78-1.03.34-.3.75-.53,1.22-.71.48-.18,1.02-.27,1.62-.27.64,0,1.22.11,1.72.33.5.22.92.52,1.25.91.34.39.6.86.78,1.39.18.53.27,1.12.27,1.75Z"></path>
      <path fill="rgba(255,255,255,0.28)" d="m386.29,691.46c-.57-.58-1.26-1.05-2.05-1.38-.79-.34-1.66-.51-2.59-.51s-1.79.17-2.59.51c-.79.34-1.48.8-2.05,1.38s-1.03,1.28-1.36,2.09c-.33.81-.49,1.69-.49,2.61s.17,1.8.49,2.6c.33.8.79,1.5,1.36,2.08.57.58,1.26,1.05,2.05,1.38.79.34,1.66.51,2.59.51s1.79-.17,2.59-.51c.79-.34,1.48-.8,2.05-1.38.57-.58,1.03-1.28,1.36-2.08.33-.8.49-1.67.49-2.6s-.17-1.8-.49-2.61c-.33-.81-.78-1.51-1.36-2.09Zm-4.64,9.05c-.65,0-1.23-.11-1.72-.33-.5-.22-.92-.52-1.26-.91-.34-.39-.6-.85-.78-1.37-.18-.52-.27-1.11-.27-1.75s.09-1.23.27-1.76c.18-.53.44-.99.78-1.38.34-.38.76-.69,1.26-.91.5-.22,1.08-.33,1.72-.33s1.23.11,1.72.33c.5.22.92.52,1.26.91.34.39.6.85.78,1.38.18.53.27,1.12.27,1.76s-.09,1.22-.27,1.75c-.18.52-.44.98-.78,1.37-.34.38-.76.69-1.26.9-.5.22-1.08.33-1.72.33Z"></path>
      <polygon fill="rgba(255,255,255,0.28)" points="393.12 698.63 393.12 689.82 390.65 689.82 390.65 702.51 392.56 702.51 399.62 693.7 399.62 702.51 402.09 702.51 402.09 689.82 400.18 689.82 393.12 698.63"></polygon>
      <polygon fill="rgba(255,255,255,0.28)" points="404.6 692.04 408.96 692.04 408.96 702.51 411.43 702.51 411.43 692.04 415.79 692.04 415.79 689.82 404.6 689.82 404.6 692.04"></polygon>
      <path fill="rgba(255,255,255,0.28)" d="m427.73,691.47c-.5-.62-1.13-1.09-1.87-1.42-.74-.32-1.6-.48-2.54-.48-.99,0-1.9.17-2.7.52-.8.35-1.49.82-2.05,1.41-.56.59-1,1.29-1.31,2.09-.3.8-.46,1.66-.46,2.57,0,1.01.17,1.93.51,2.73.34.81.82,1.51,1.42,2.07.61.56,1.35,1,2.21,1.31.86.3,1.82.46,2.85.46.9,0,1.74-.11,2.47-.34.74-.23,1.41-.52,1.99-.87l.05-.03v-2.25h-.37l-.03.02c-.29.18-.58.35-.87.51-.28.15-.58.29-.89.4-.31.11-.67.2-1.06.26-.39.06-.84.09-1.33.09-1.34,0-2.4-.34-3.15-1.01-.72-.64-1.16-1.51-1.3-2.58h9.67v-.1c.11-1.14.05-2.17-.17-3.06-.22-.9-.58-1.67-1.08-2.29Zm-8.31,3.31c.19-.87.6-1.59,1.21-2.13.64-.57,1.54-.86,2.67-.86.94,0,1.68.29,2.21.85.5.54.82,1.26.95,2.14h-7.03Z"></path>
      <path fill="rgba(255,255,255,0.28)" d="m432.8,689.93c-.08,1.84-.16,3.43-.22,4.77-.07,1.33-.17,2.44-.31,3.3-.14.85-.33,1.49-.58,1.89-.24.38-.55.57-.96.57-.11,0-.2,0-.27-.01-.07,0-.14-.02-.2-.04-.05-.01-.1-.03-.14-.06l-.18-.12v2.21l.05.03c.07.05.16.1.24.14.18.09.44.14.77.14.72,0,1.33-.18,1.81-.53.48-.35.88-.96,1.19-1.8.3-.83.53-1.94.68-3.31.15-1.34.25-3.05.3-5.07h4.58v10.46h2.47v-12.68h-9.22v.11Z"></path>
      <path fill="rgba(255,255,255,0.28)" d="m454.09,695.19c-.42-.36-.93-.66-1.5-.87-.57-.21-1.21-.32-1.88-.32h-2.95v-4.19h-2.47v12.68h5.42c.68,0,1.31-.11,1.88-.33.58-.22,1.08-.53,1.51-.92.42-.39.76-.86,1-1.4.24-.54.36-1.12.36-1.73,0-.58-.12-1.13-.36-1.63-.24-.5-.58-.94-1-1.31Zm-6.34,1.03h2.95c.75,0,1.32.18,1.7.54.39.36.57.81.57,1.36,0,.61-.2,1.13-.59,1.54-.39.41-.96.61-1.69.61h-2.95v-4.06Z"></path>
      <path fill="rgba(255,255,255,0.28)" d="m465.38,689.72c-.62-.1-1.27-.15-1.92-.15-.92,0-1.79.17-2.59.51-.79.34-1.48.8-2.05,1.38s-1.03,1.28-1.36,2.09c-.33.81-.49,1.69-.49,2.61s.17,1.8.49,2.6c.33.8.79,1.5,1.36,2.08.57.58,1.26,1.05,2.05,1.38.79.34,1.66.51,2.59.51.65,0,1.3-.05,1.93-.16.63-.11,1.2-.3,1.69-.57l.06-.03v-2.32h-.37l-.03.02c-.47.29-.96.51-1.44.65-.49.14-1.1.21-1.84.21-.65,0-1.23-.11-1.72-.33-.5-.22-.92-.52-1.26-.91-.34-.39-.6-.85-.78-1.37-.18-.52-.27-1.11-.27-1.75s.09-1.23.27-1.76c.18-.53.44-.99.78-1.38.34-.38.76-.69,1.26-.91.5-.22,1.08-.33,1.72-.33.73,0,1.35.07,1.84.2.49.13.97.34,1.44.63l.03.02h.37v-2.32l-.06-.03c-.49-.27-1.06-.46-1.69-.56Z"></path>
      <polygon fill="rgba(255,255,255,0.28)" points="468.9 692.04 473.26 692.04 473.26 702.51 475.73 702.51 475.73 692.04 480.09 692.04 480.09 689.82 468.9 689.82 468.9 692.04"></polygon>
      <path fill="rgba(255,255,255,0.28)" d="m490.73,695.84c.44-.26.79-.59,1.06-.99.32-.47.48-1.04.48-1.7,0-.5-.12-.96-.35-1.37-.23-.4-.55-.75-.95-1.04-.4-.29-.88-.52-1.42-.68-.54-.16-1.14-.24-1.78-.24h-5.17v12.68h5.92c.64,0,1.24-.09,1.78-.25.54-.17,1.02-.42,1.42-.74.4-.32.72-.72.95-1.17.23-.45.35-.96.35-1.51,0-.81-.24-1.47-.7-1.98-.41-.45-.94-.78-1.59-1.01Zm-1.41-1.29c-.33.3-.79.46-1.39.46h-2.85v-3.01h2.7c.67,0,1.18.14,1.52.41.34.27.51.6.51.99,0,.47-.16.85-.49,1.15Zm-4.24,2.48h3.52c.66,0,1.16.15,1.48.44.32.3.47.66.47,1.11,0,.5-.17.91-.51,1.25-.34.33-.85.5-1.51.5h-3.45v-3.31Z"></path>
      <path fill="rgba(255,255,255,0.28)" d="m507.27,693.56c-.33-.81-.78-1.51-1.36-2.09-.57-.58-1.26-1.05-2.05-1.38-.79-.34-1.66-.51-2.59-.51s-1.79.17-2.59.51c-.79.34-1.48.8-2.05,1.38-.57.58-1.03,1.29-1.36,2.09-.33.81-.49,1.69-.49,2.61s.17,1.8.49,2.6.78,1.5,1.36,2.08,1.26,1.05,2.05,1.38c.79.34,1.66.51,2.59.51s1.79-.17,2.59-.51c.79-.34,1.48-.8,2.05-1.38.57-.58,1.03-1.28,1.36-2.08.33-.8.49-1.67.49-2.6s-.17-1.8-.49-2.61Zm-1.97,2.61c0,.63-.09,1.22-.27,1.75-.18.52-.44.98-.78,1.37-.34.38-.76.69-1.26.9-.5.22-1.08.33-1.72.33s-1.23-.11-1.72-.33c-.5-.22-.92-.52-1.26-.91-.34-.39-.6-.85-.78-1.37-.18-.52-.27-1.11-.27-1.75s.09-1.23.27-1.76c.18-.53.44-1,.78-1.38.34-.38.76-.69,1.26-.91.5-.22,1.08-.33,1.72-.33s1.23.11,1.72.33c.5.22.92.52,1.26.91.34.39.6.85.78,1.38.18.53.27,1.12.27,1.76Z"></path>
      <path fill="rgba(255,255,255,0.28)" d="m398.43,661.89c1.03,0,1.89-.32,2.55-.94.52-.48.84-1.07.95-1.74l.02-.13h-2.07l-.03.07c-.08.2-.19.35-.33.48-.29.27-.65.41-1.09.41s-.81-.13-1.1-.41c-.15-.14-.26-.3-.33-.48l-.03-.07h-2.07l.02.13c.11.67.43,1.25.95,1.73.67.62,1.53.94,2.56.94Z"></path>
    </g>
  </g>
</svg>