<?xml version="1.0"?>
<svg id="_Слой_1" data-name="Слой 1" xmlns="http://www.w3.org/2000/svg" viewBox="0 0 841.89 841.89">
  <defs>
    
  </defs>
  <g>
    <polygon class="cls-1" points="438.43 194.68 438.43 188.03 403.28 188.03 403.28 218.47 438.43 218.47 438.43 211.84 411.35 211.84 411.35 206.58 433.99 206.58 433.99 199.92 411.35 199.92 411.35 194.68 438.43 194.68"></polygon>
    <polygon class="cls-1" points="438.42 270.67 420.86 270.67 403.27 270.67 403.27 277.3 416.81 277.3 416.81 300.94 416.81 300.96 420.86 300.96 424.89 300.96 424.89 300.94 424.89 277.3 438.42 277.3 438.42 270.67"></polygon>
    <path class="cls-1" d="m411.08,424.36h0s2.07-7.01,2.07-7.01l.06-.21h15.26l.06.21h.02l2.07,7.01h0s8,0,8,0h0s-8.96-30.27-8.96-30.27h-17.64l-8.93,30.2-.02.08h0s.02,0,.02,0h7.99Zm6.95-23.68h5.62l2.86,9.71h-11.32l2.84-9.71Z"></path>
    <rect class="cls-1" x="449.65" y="135.75" width="57.6" height="52.12"></rect>
    <polygon class="cls-1" points="391.96 606.73 449.65 606.73 449.65 517.9 449.65 517.68 391.96 517.68 391.96 606.73"></polygon>
    <rect class="cls-1" x="334.65" y="229.38" width="57.31" height="288.3"></rect>
    <polygon class="cls-1" points="449.65 270.62 449.65 465.66 507.24 465.66 507.22 270.62 449.65 270.62"></polygon>
    <path class="cls-1" d="m438.75,241.06c0,1.46-.08,3.71-.28,5-.77,5-3.35,7.1-10.09,7.1h-17.18v6.61h-8.1v-30.38h25.28c6.06,0,9.08,1.81,10.03,6.64.23,1.18.34,3.57.34,5.03Zm-8.34-2.28c0-1.52-1.23-2.75-2.75-2.75h-16.46v10.07h16.46c1.52,0,2.75-1.23,2.75-2.75v-4.57Z"></path>
    <path class="cls-1" d="m438.1,500.1c-.95,4.84-3.97,6.64-10.03,6.64h-24.89v-30.38h8.1v7.4h16.79c6.74,0,9.32,2.1,10.09,7.1.2,1.28.28,3.53.28,5s-.11,3.07-.34,4.24Zm-8-6.54c0-1.52-1.23-2.75-2.75-2.75h-16.06v9.29h16.06c1.52,0,2.75-1.23,2.75-2.75v-3.79Z"></path>
    <path class="cls-1" d="m438.57,311.74v30.38h-8.2v-23.33l-13.75,23.33h-13.32v-30.38h8.2v23.33l13.87-23.33h13.19Z"></path>
    <path class="cls-1" d="m420.35,371.6h-8.93v11.67h-8.1v-30.38h8.1v11.67h8.48l7.99-11.67h9.8l-10.69,14.91,11.58,15.47h-10.04l-8.18-11.67Z"></path>
    <path class="cls-1" d="m438.62,435.18h-32.01v10.34h0c-.02.48-.02.94-.02,1.33v8.06c-.03.46-.35,3.63-3.45,4.03v6.62c3.86,0,6.41-.56,8.29-2.12,1.46-1.21,2.69-2.97,3.09-5.18.27-1.47.41-2.67.41-4.92h.01v-11.52h15.56v23.74h8.1v-30.37h.03Z"></path>
    <path class="cls-1" d="m438.31,161.55h-8.16c.26-.26,2.2-2.22,3.2-3.92,1.14-1.94,4.07-6.86,4.07-10.96h-34.35v30.5l24.87.02c2.43,0,4.3-.35,5.4-.75,2.29-.82,3.64-2.43,4.29-4.53.18-.57.47-1.45.6-3.4h0c.04-.6.06-1.3.06-2.12v-.81s-.04,0-.06,0v-.07s.04,0,.06,0v-.43s0,0,0,0v-3.53Zm-26.88-8.72h16.78c-.55,3.11-3.65,5.82-3.65,5.82h-13.13v-5.82Zm18.76,14.42c-.16,1.97-.99,3.39-3.69,3.39h-15.33v-5.56h19.02v2.17Z"></path>
  </g>
  <g>
    <path class="cls-1" d="m336.99,645.89c.54.59,1.18,1.06,1.92,1.39.74.34,1.56.51,2.43.51s1.76-.18,2.53-.54c.68-.32,1.27-.73,1.77-1.24v1.54h2.46v-12.62h-2.46v1.56c-.5-.52-1.09-.94-1.77-1.26-.77-.36-1.62-.54-2.53-.54s-1.69.17-2.43.51c-.74.34-1.38.8-1.92,1.38-.54.58-.96,1.28-1.26,2.08-.3.8-.45,1.67-.45,2.59s.15,1.79.45,2.58.73,1.49,1.26,2.08Zm.74-4.66c0-.63.09-1.21.27-1.74.18-.52.44-.99.77-1.38.33-.39.75-.69,1.25-.91.5-.22,1.07-.32,1.72-.32.59,0,1.14.09,1.62.28.48.18.89.43,1.23.73.33.3.6.66.78,1.06.18.4.27.83.27,1.28v2.14c-.02.43-.12.84-.31,1.22-.19.38-.46.72-.79,1.02-.34.29-.74.53-1.22.71-.47.18-1.01.26-1.58.26-.64,0-1.22-.11-1.72-.32-.49-.21-.91-.52-1.25-.91-.34-.39-.6-.85-.77-1.38-.18-.53-.27-1.11-.27-1.74Z"></path>
    <path class="cls-1" d="m353.8,646c.5.51,1.09.92,1.77,1.24.77.36,1.62.54,2.53.54s1.69-.17,2.43-.51c.74-.34,1.38-.8,1.92-1.39.54-.59.96-1.29,1.26-2.08.3-.8.45-1.66.45-2.58s-.15-1.79-.45-2.59c-.3-.8-.73-1.5-1.26-2.08-.54-.58-1.18-1.04-1.92-1.38-.74-.34-1.56-.51-2.43-.51s-1.75.18-2.53.54c-.68.32-1.27.74-1.77,1.26v-1.56h-2.46v17.58h2.46v-6.5Zm.28-2.52c-.18-.4-.28-.82-.28-1.25v-2.14c.02-.43.12-.84.3-1.23.18-.39.44-.73.78-1.02.34-.29.74-.53,1.22-.71.47-.18,1.01-.26,1.61-.26.64,0,1.22.11,1.72.32.5.22.92.52,1.25.91.33.39.59.85.77,1.38.18.53.27,1.11.27,1.74s-.09,1.21-.27,1.74c-.18.53-.44.99-.77,1.38-.33.39-.75.69-1.25.91-.5.22-1.07.32-1.72.32-.59,0-1.14-.09-1.62-.28-.48-.18-.89-.43-1.23-.74-.33-.31-.6-.67-.78-1.07Z"></path>
    <polygon class="cls-1" points="367.53 647.54 370.97 642.85 374.44 647.54 377.37 647.54 372.55 641.05 377.12 634.91 374.44 634.91 371.24 639.27 368.03 634.91 365.09 634.91 369.67 641.1 364.84 647.54 367.53 647.54"></polygon>
    <polygon class="cls-1" points="388.44 638.77 388.44 647.54 390.9 647.54 390.9 634.91 388.99 634.91 381.97 643.68 381.97 634.91 379.51 634.91 379.51 647.54 381.42 647.54 388.44 638.77"></polygon>
    <polygon class="cls-1" points="393.4 637.12 397.74 637.12 397.74 647.54 400.19 647.54 400.19 637.12 404.53 637.12 404.53 634.91 393.4 634.91 393.4 637.12"></polygon>
    <path class="cls-1" d="m407.47,646.01c.6.56,1.34,1,2.2,1.3.85.3,1.81.45,2.84.45.9,0,1.73-.11,2.46-.34.73-.23,1.4-.52,1.98-.87l.05-.03v-2.23h-.37l-.03.02c-.29.18-.58.35-.86.51-.27.15-.57.29-.89.4-.31.11-.67.2-1.06.26s-.83.09-1.32.09c-1.34,0-2.39-.34-3.14-1-.72-.64-1.15-1.5-1.3-2.57h9.62v-.1c.11-1.13.05-2.15-.17-3.05-.22-.9-.58-1.66-1.08-2.28s-1.12-1.09-1.87-1.41c-.74-.32-1.59-.48-2.52-.48-.99,0-1.89.17-2.69.52-.8.34-1.48.81-2.05,1.4-.56.59-1,1.29-1.3,2.08-.3.79-.45,1.65-.45,2.56,0,1,.17,1.92.5,2.72.34.81.81,1.5,1.42,2.06Zm.69-6.16c.19-.87.59-1.58,1.2-2.12.64-.57,1.53-.85,2.65-.85.94,0,1.68.28,2.2.84.5.54.82,1.26.95,2.13h-7Z"></path>
    <polygon class="cls-1" points="422.68 641.68 428.19 647.5 428.22 647.54 431.44 647.54 425.26 641 431.45 634.91 428.47 634.91 422.68 640.61 422.68 634.91 420.23 634.91 420.23 647.54 422.68 647.54 422.68 641.68"></polygon>
    <polygon class="cls-1" points="432.84 637.12 437.18 637.12 437.18 647.54 439.64 647.54 439.64 637.12 443.98 637.12 443.98 634.91 432.84 634.91 432.84 637.12"></polygon>
    <polygon class="cls-1" points="448.28 652.5 450.87 652.5 458.08 634.91 455.48 634.91 451.6 644.37 447.98 634.91 445.23 634.91 450.28 647.6 448.28 652.5"></polygon>
    <path class="cls-1" d="m462.49,646c.5.51,1.09.93,1.77,1.24.77.36,1.62.54,2.53.54s1.69-.17,2.43-.51c.74-.33,1.38-.8,1.92-1.39.54-.59.96-1.29,1.26-2.08s.45-1.66.45-2.58-.15-1.79-.45-2.59c-.3-.8-.73-1.51-1.26-2.08-.54-.58-1.18-1.04-1.92-1.38-.74-.34-1.56-.51-2.43-.51s-1.76.18-2.53.54c-.68.32-1.27.74-1.77,1.26v-1.56h-2.46v17.58h2.46v-6.5Zm.27-2.52c-.18-.4-.27-.82-.27-1.25v-2.14c.02-.43.12-.84.3-1.23.18-.39.44-.73.78-1.02.34-.29.75-.53,1.22-.71.47-.18,1.01-.26,1.61-.26.64,0,1.22.11,1.72.32.49.21.91.52,1.25.91.34.39.59.85.77,1.38.18.53.27,1.11.27,1.74s-.09,1.21-.27,1.74c-.18.53-.44.99-.77,1.38-.33.39-.75.69-1.25.91-.5.22-1.07.32-1.72.32-.59,0-1.14-.09-1.62-.28-.48-.18-.89-.43-1.23-.74-.33-.31-.6-.67-.78-1.07Z"></path>
    <path class="cls-1" d="m484.98,646v1.54h2.46v-12.62h-2.46v1.56c-.5-.52-1.1-.94-1.77-1.26-.77-.36-1.62-.54-2.53-.54s-1.69.17-2.43.51c-.74.34-1.38.8-1.92,1.38-.54.58-.96,1.28-1.26,2.08-.3.8-.45,1.67-.45,2.59s.15,1.79.45,2.58c.3.8.73,1.5,1.26,2.08.54.59,1.18,1.06,1.92,1.39.74.34,1.55.51,2.43.51s1.76-.18,2.53-.54c.68-.32,1.27-.73,1.77-1.24Zm-3.9-.42c-.64,0-1.22-.11-1.72-.32-.49-.21-.91-.52-1.25-.91-.34-.39-.6-.86-.77-1.38-.18-.53-.27-1.11-.27-1.74s.09-1.21.27-1.74c.18-.52.44-.99.77-1.38.33-.39.75-.69,1.25-.91.5-.22,1.07-.32,1.72-.32.59,0,1.14.09,1.62.28.48.18.89.43,1.23.73.33.3.6.66.78,1.06.18.4.28.83.28,1.28v2.14c-.02.43-.12.84-.31,1.22-.19.38-.46.72-.79,1.02-.34.29-.74.53-1.22.71-.47.18-1.01.26-1.58.26Z"></path>
    <path class="cls-1" d="m348.89,677.58v-5.43h-1.98v-10.41h-9.27v.11c-.12,2.83-.31,5.12-.56,6.79-.25,1.63-.65,2.82-1.2,3.51h-1.35v5.43h2.21v-3.22h9.94v3.22h2.21Zm-4.44-13.64v8.2h-6.06c.4-.71.7-1.71.88-2.96.19-1.32.35-3.09.47-5.25h4.71Z"></path>
    <polygon class="cls-1" points="362.21 674.36 362.21 661.73 360.3 661.73 353.28 670.5 353.28 661.73 350.82 661.73 350.82 674.36 352.73 674.36 359.75 665.59 359.75 674.36 362.21 674.36"></polygon>
    <path class="cls-1" d="m372.55,667.83c.48-.26.87-.6,1.16-1.02.33-.49.5-1.08.5-1.76,0-.53-.12-1.02-.36-1.46-.24-.43-.58-.81-1.02-1.13-.44-.31-.97-.55-1.57-.72-.6-.17-1.27-.25-1.99-.25-1.6,0-2.9.26-3.87.78l-.06.03v2.24h.37l.03-.02c.47-.27,1-.48,1.59-.62.59-.14,1.18-.21,1.75-.21,1.03,0,1.74.15,2.12.46.38.3.56.68.56,1.14s-.16.84-.48,1.13c-.32.29-.79.44-1.39.44h-2.52v2.16h3.01c.61,0,1.08.14,1.4.43.32.29.47.64.47,1.07,0,.55-.21.99-.64,1.34-.43.35-1.2.53-2.3.53-.83,0-1.57-.07-2.18-.21-.61-.14-1.21-.38-1.78-.72l-.03-.02h-.37v2.31l.06.03c.59.32,1.23.54,1.92.64.68.11,1.48.16,2.37.16,1.7,0,3.04-.35,3.97-1.04.94-.7,1.42-1.64,1.42-2.79,0-.77-.22-1.41-.66-1.92-.38-.44-.88-.78-1.5-1.02Z"></path>
    <path class="cls-1" d="m386.83,663.29c-.5-.52-1.1-.94-1.77-1.26-.77-.36-1.62-.54-2.53-.54s-1.69.17-2.43.51c-.74.33-1.38.8-1.92,1.38-.54.58-.96,1.28-1.26,2.08-.3.8-.45,1.67-.45,2.59s.15,1.79.45,2.58c.3.79.73,1.49,1.26,2.08.54.59,1.18,1.06,1.92,1.39.74.34,1.55.51,2.43.51s1.76-.18,2.53-.54c.68-.32,1.27-.73,1.77-1.24v1.54h2.46v-12.62h-2.46v1.56Zm-.28,2.48c.18.4.28.83.28,1.28v2.14c-.02.43-.12.83-.31,1.22-.19.38-.46.72-.79,1.02-.33.29-.74.53-1.22.71-.47.18-1.01.26-1.58.26-.64,0-1.22-.11-1.72-.32-.49-.21-.91-.52-1.25-.91-.34-.39-.6-.85-.77-1.38-.18-.53-.27-1.11-.27-1.74s.09-1.21.27-1.74c.18-.52.44-.99.77-1.38.33-.39.75-.69,1.25-.91.5-.22,1.07-.32,1.72-.32.59,0,1.14.09,1.62.28.48.18.89.43,1.23.73.33.3.6.66.78,1.06Z"></path>
    <polygon class="cls-1" points="394.99 670.5 394.99 661.73 392.53 661.73 392.53 674.36 394.43 674.36 401.46 665.59 401.46 674.36 403.91 674.36 403.91 661.73 402.01 661.73 394.99 670.5"></polygon>
    <polygon class="cls-1" points="418.29 674.36 418.29 661.73 415.84 661.73 415.84 666.84 409.62 666.84 409.62 661.73 407.16 661.73 407.16 674.36 409.62 674.36 409.62 669.05 415.84 669.05 415.84 674.36 418.29 674.36"></polygon>
    <path class="cls-1" d="m343.65,688.46c-.62-.1-1.27-.15-1.91-.15-.92,0-1.79.17-2.57.51-.79.33-1.47.8-2.04,1.38-.57.58-1.02,1.28-1.35,2.08-.33.8-.49,1.68-.49,2.6s.17,1.79.49,2.58.78,1.49,1.35,2.07c.57.58,1.26,1.04,2.04,1.38.79.33,1.65.51,2.57.51.65,0,1.29-.05,1.92-.16.63-.11,1.19-.3,1.68-.57l.06-.03v-2.31h-.37l-.03.02c-.47.29-.95.51-1.43.64-.48.14-1.1.21-1.83.21-.64,0-1.22-.11-1.72-.33-.49-.21-.91-.52-1.25-.9-.34-.38-.6-.84-.77-1.36-.18-.52-.27-1.11-.27-1.74s.09-1.22.27-1.75c.18-.53.43-.99.77-1.37.33-.38.76-.69,1.25-.9.5-.22,1.07-.33,1.72-.33.73,0,1.34.07,1.83.19.48.13.97.34,1.43.63l.03.02h.37v-2.31l-.06-.03c-.49-.27-1.06-.46-1.69-.56Z"></path>
    <polygon class="cls-1" points="347.35 690.76 351.68 690.76 351.68 701.18 354.14 701.18 354.14 690.76 358.48 690.76 358.48 688.55 347.35 688.55 347.35 690.76"></polygon>
    <path class="cls-1" d="m371.9,690.19c-.54-.58-1.18-1.04-1.92-1.38-.74-.34-1.56-.51-2.43-.51s-1.75.18-2.53.54c-.68.32-1.27.74-1.77,1.26v-1.56h-2.46v17.58h2.46v-6.5c.5.51,1.09.92,1.77,1.24.77.36,1.62.54,2.53.54s1.69-.17,2.43-.51c.74-.34,1.38-.8,1.92-1.39.54-.59.96-1.29,1.26-2.08.3-.79.45-1.66.45-2.58s-.15-1.79-.45-2.59-.73-1.5-1.26-2.08Zm-.74,4.68c0,.63-.09,1.21-.27,1.74-.18.53-.44.99-.77,1.38-.33.39-.75.69-1.25.91-.5.21-1.07.32-1.72.32-.59,0-1.14-.09-1.62-.28-.48-.18-.89-.43-1.23-.74-.33-.31-.6-.67-.78-1.07-.18-.4-.27-.82-.27-1.25v-2.14c.02-.43.12-.84.3-1.23.18-.39.44-.73.78-1.02.34-.29.75-.53,1.22-.71.47-.18,1.01-.26,1.61-.26.64,0,1.22.11,1.72.32.49.21.91.52,1.25.91.34.39.59.85.77,1.38.18.53.27,1.11.27,1.74Z"></path>
    <path class="cls-1" d="m386.45,690.19c-.57-.58-1.26-1.04-2.04-1.38-.79-.33-1.65-.51-2.57-.51s-1.79.17-2.57.51c-.79.33-1.47.8-2.04,1.38s-1.02,1.28-1.35,2.08c-.33.8-.49,1.68-.49,2.6s.17,1.79.49,2.58c.33.8.78,1.49,1.35,2.07.57.58,1.26,1.04,2.04,1.38.79.33,1.65.51,2.57.51s1.78-.17,2.57-.51c.79-.33,1.47-.8,2.04-1.38.57-.58,1.02-1.27,1.35-2.07.33-.8.49-1.66.49-2.58s-.17-1.79-.49-2.6c-.33-.8-.78-1.5-1.35-2.08Zm-4.62,9c-.64,0-1.22-.11-1.72-.33-.49-.21-.91-.52-1.25-.9-.34-.38-.6-.84-.77-1.36-.18-.52-.27-1.11-.27-1.74s.09-1.22.27-1.75c.18-.53.43-.99.77-1.37.33-.38.75-.69,1.25-.9.5-.22,1.07-.33,1.72-.33s1.22.11,1.72.33c.5.22.92.52,1.25.9.34.38.6.85.77,1.37.18.53.27,1.12.27,1.75s-.09,1.21-.27,1.74c-.18.52-.44.98-.77,1.36-.33.38-.75.68-1.25.9-.5.22-1.07.33-1.72.33Z"></path>
    <polygon class="cls-1" points="393.25 697.32 393.25 688.55 390.79 688.55 390.79 701.18 392.7 701.18 399.72 692.41 399.72 701.18 402.18 701.18 402.18 688.55 400.27 688.55 393.25 697.32"></polygon>
    <polygon class="cls-1" points="404.68 690.76 409.02 690.76 409.02 701.18 411.47 701.18 411.47 690.76 415.81 690.76 415.81 688.55 404.68 688.55 404.68 690.76"></polygon>
    <path class="cls-1" d="m427.7,690.19c-.5-.61-1.12-1.09-1.87-1.41-.74-.32-1.59-.48-2.52-.48-.99,0-1.89.17-2.69.52-.8.34-1.48.82-2.04,1.4-.56.59-1,1.29-1.3,2.08-.3.79-.45,1.65-.45,2.56,0,1,.17,1.92.5,2.72.34.81.81,1.5,1.42,2.06.6.56,1.34,1,2.2,1.3.85.3,1.81.45,2.84.45.9,0,1.73-.11,2.46-.34.73-.22,1.4-.52,1.98-.87l.05-.03v-2.24h-.37l-.03.02c-.29.18-.58.35-.86.51-.27.15-.57.29-.89.4-.31.11-.67.2-1.06.26-.39.06-.83.09-1.32.09-1.34,0-2.39-.34-3.14-1-.72-.64-1.15-1.5-1.3-2.57h9.62v-.1c.11-1.13.05-2.16-.17-3.05-.22-.9-.58-1.66-1.08-2.28Zm-8.27,3.29c.19-.87.59-1.58,1.2-2.12.64-.57,1.53-.85,2.65-.85.94,0,1.68.28,2.2.84.5.54.82,1.26.95,2.13h-7Z"></path>
    <path class="cls-1" d="m432.75,688.66c-.08,1.83-.16,3.42-.22,4.75-.07,1.32-.17,2.43-.31,3.29-.14.85-.33,1.48-.58,1.88-.24.38-.55.57-.96.57-.11,0-.2,0-.27-.01-.07,0-.13-.02-.2-.04-.05-.01-.1-.03-.14-.06l-.18-.12v2.2l.04.03c.07.05.16.1.24.13.18.09.43.14.77.14.72,0,1.32-.18,1.8-.53.48-.35.88-.95,1.18-1.79.3-.82.53-1.93.68-3.3.15-1.34.24-3.03.3-5.04h4.56v10.41h2.46v-12.62h-9.17v.11Z"></path>
    <path class="cls-1" d="m453.93,693.9c-.42-.36-.93-.65-1.5-.86-.57-.21-1.2-.32-1.87-.32h-2.94v-4.17h-2.46v12.62h5.39c.67,0,1.3-.11,1.87-.33.57-.22,1.08-.53,1.5-.91.42-.39.76-.86.99-1.39.24-.53.36-1.11.36-1.72,0-.58-.12-1.12-.36-1.62-.24-.5-.57-.94-1-1.3Zm-6.31,1.03h2.94c.74,0,1.31.18,1.7.54.38.36.57.81.57,1.36,0,.61-.2,1.13-.59,1.53-.39.4-.95.61-1.68.61h-2.94v-4.04Z"></path>
    <path class="cls-1" d="m465.17,688.46c-.62-.1-1.27-.15-1.91-.15-.92,0-1.79.17-2.57.51-.79.33-1.47.8-2.04,1.38s-1.02,1.28-1.35,2.08c-.33.8-.49,1.68-.49,2.6s.17,1.79.49,2.58c.33.8.78,1.49,1.35,2.07.57.58,1.26,1.04,2.04,1.38.79.33,1.65.51,2.57.51.65,0,1.29-.05,1.92-.16.63-.11,1.19-.3,1.68-.57l.06-.03v-2.31h-.37l-.03.02c-.47.29-.95.51-1.43.64-.48.14-1.1.21-1.83.21-.64,0-1.22-.11-1.72-.33-.49-.21-.91-.52-1.25-.9-.34-.38-.6-.84-.77-1.36-.18-.52-.27-1.11-.27-1.74s.09-1.22.27-1.75c.18-.53.43-.99.77-1.37.33-.38.75-.69,1.25-.9.5-.22,1.07-.33,1.72-.33.73,0,1.34.07,1.83.19.48.13.97.34,1.43.63l.03.02h.37v-2.31l-.06-.03c-.49-.27-1.06-.46-1.69-.56Z"></path>
    <polygon class="cls-1" points="468.67 690.76 473.01 690.76 473.01 701.18 475.47 701.18 475.47 690.76 479.81 690.76 479.81 688.55 468.67 688.55 468.67 690.76"></polygon>
    <path class="cls-1" d="m490.4,694.54c.43-.26.79-.59,1.06-.99.32-.47.48-1.04.48-1.69,0-.5-.12-.95-.35-1.36-.23-.4-.55-.75-.95-1.04-.4-.29-.87-.51-1.41-.67-.54-.16-1.13-.24-1.77-.24h-5.15v12.62h5.89c.64,0,1.23-.09,1.77-.25.54-.17,1.01-.42,1.41-.74.4-.32.72-.72.95-1.17.23-.45.35-.96.35-1.5,0-.8-.24-1.47-.7-1.97-.41-.44-.94-.78-1.58-1Zm-1.4-1.28c-.32.3-.79.45-1.39.45h-2.84v-3h2.69c.66,0,1.17.14,1.52.41.34.27.5.59.5.99,0,.47-.16.84-.48,1.14Zm-4.22,2.46h3.51c.66,0,1.16.15,1.47.44.32.29.47.66.47,1.11,0,.5-.17.91-.51,1.25-.34.33-.85.5-1.51.5h-3.43v-3.3Z"></path>
    <path class="cls-1" d="m506.86,692.27c-.33-.8-.78-1.5-1.35-2.08-.57-.58-1.26-1.04-2.04-1.38-.79-.33-1.65-.51-2.57-.51s-1.79.17-2.57.51c-.79.33-1.47.8-2.04,1.38-.57.58-1.03,1.28-1.35,2.08-.33.8-.49,1.68-.49,2.6s.17,1.79.49,2.58.78,1.49,1.35,2.07,1.26,1.04,2.04,1.38c.79.33,1.65.51,2.57.51s1.78-.17,2.57-.51c.79-.33,1.47-.8,2.04-1.38.57-.58,1.02-1.28,1.35-2.07.33-.79.49-1.66.49-2.58s-.17-1.79-.49-2.6Zm-1.97,2.6c0,.63-.09,1.21-.27,1.74-.18.52-.44.98-.77,1.36-.33.38-.75.68-1.25.9-.5.22-1.07.33-1.72.33s-1.22-.11-1.72-.33c-.49-.21-.91-.52-1.25-.9-.34-.38-.6-.84-.77-1.36-.18-.52-.27-1.11-.27-1.74s.09-1.22.27-1.75c.18-.53.43-.99.77-1.37.33-.38.75-.69,1.25-.9.5-.22,1.07-.33,1.72-.33s1.22.11,1.72.33c.5.22.92.52,1.25.9.34.38.59.85.77,1.37.18.53.27,1.12.27,1.75Z"></path>
    <path class="cls-1" d="m398.53,660.75c1.03,0,1.88-.31,2.54-.93.52-.48.84-1.06.95-1.73l.02-.13h-2.06l-.03.07c-.08.19-.18.35-.33.48-.29.27-.64.41-1.09.41s-.81-.13-1.09-.41c-.15-.14-.26-.3-.33-.48l-.03-.07h-2.06l.02.13c.11.67.43,1.25.94,1.73.67.62,1.52.93,2.55.93Z"></path>
  </g>
</svg>